<svg width="48" height="48" viewBox="0 0 48 48" fill="none" xmlns="http://www.w3.org/2000/svg">
<path d="M9.87821 16.1337L8.83215 15.3219L14.691 10.248H29.5479V14.7127L19.9223 21.0043L9.87821 16.1337Z" fill="white"/>
<path d="M32.0616 13.1138L30.1288 11.027L29.4076 10.248L24.6922 15.3571L22.8473 16.5834L19.986 37.419L24.3008 41.7201H34.3277V15.5613L32.0616 13.1138Z" fill="#A99CB1"/>
<path d="M24.7674 15.4258H8.83215V41.7189H24.7674V15.4258Z" fill="white"/>
<g filter="url(#filter0_i_3266_52827)">
<path d="M17.5962 35.3457H14.8075V41.7198H17.5962V35.3457Z" fill="#A99CB1"/>
</g>
<path d="M11.621 37.3377V36.1426H10.4259V37.3377H11.5211H11.621Z" fill="#F0EAF4"/>
<path d="M11.5211 38.1328H10.4259V39.328H11.621V38.1328H11.5211Z" fill="#F0EAF4"/>
<path d="M14.0117 36.1426H12.8165V37.3377H14.0117V36.1426Z" fill="#F0EAF4"/>
<path d="M14.0117 38.1328H12.8165V39.328H14.0117V38.1328Z" fill="#F0EAF4"/>
<path d="M20.3842 37.3377V36.1426H19.1891V37.3377H20.2848H20.3842Z" fill="#F0EAF4"/>
<path d="M20.2848 38.1328H19.1891V39.328H20.3842V38.1328H20.2848Z" fill="#F0EAF4"/>
<path d="M22.3776 36.1426H21.1825V37.3377H22.3776V36.1426Z" fill="#F0EAF4"/>
<path d="M22.3776 38.1328H21.1825V39.328H22.3776V38.1328Z" fill="#F0EAF4"/>
<path d="M29.1499 17.0194V15.8242H27.9547V17.0194H29.0504H29.1499Z" fill="white"/>
<path d="M29.0504 17.418H27.9547V18.6131H29.1499V17.418H29.0504Z" fill="white"/>
<path d="M31.1408 15.8242H29.9457V17.0194H31.1408V15.8242Z" fill="white"/>
<path d="M31.1408 17.418H29.9457V18.6131H31.1408V17.418Z" fill="white"/>
<path d="M29.1499 22.5955V21.4004H27.9547V22.5955H29.0504H29.1499Z" fill="white"/>
<path d="M29.0504 23.3926H27.9547V24.5877H29.1499V23.3926H29.0504Z" fill="white"/>
<path d="M31.1408 21.4004H29.9457V22.5955H31.1408V21.4004Z" fill="white"/>
<path d="M31.1408 23.3926H29.9457V24.5877H31.1408V23.3926Z" fill="white"/>
<path d="M29.1499 28.1737V26.9785H27.9547V28.1737H29.0504H29.1499Z" fill="white"/>
<path d="M29.0504 28.9707H27.9547V30.1658H29.1499V28.9707H29.0504Z" fill="white"/>
<path d="M31.1408 26.9785H29.9457V28.1737H31.1408V26.9785Z" fill="white"/>
<path d="M31.1408 28.9707H29.9457V30.1658H31.1408V28.9707Z" fill="white"/>
<path d="M29.1499 34.1502V32.9551H27.9547V34.1502H29.0504H29.1499Z" fill="white"/>
<path d="M29.0504 34.5488H27.9547V35.744H29.1499V34.5488H29.0504Z" fill="white"/>
<path d="M31.1408 32.9551H29.9457V34.1502H31.1408V32.9551Z" fill="white"/>
<path d="M31.1408 34.5488H29.9457V35.744H31.1408V34.5488Z" fill="white"/>
<g filter="url(#filter1_i_3266_52827)">
<path d="M22.3773 16.6211H10.4259V19.0114H22.3773V16.6211Z" fill="#A99CB1"/>
</g>
<g filter="url(#filter2_i_3266_52827)">
<path d="M22.3773 21.4004H10.4259V23.7907H22.3773V21.4004Z" fill="#A99CB1"/>
</g>
<g filter="url(#filter3_i_3266_52827)">
<path d="M22.3773 26.5801H10.4259V28.9704H22.3773V26.5801Z" fill="#A99CB1"/>
</g>
<g filter="url(#filter4_i_3266_52827)">
<path d="M22.3773 31.3613H10.4259V33.7516H22.3773V31.3613Z" fill="#A99CB1"/>
</g>
<path fill-rule="evenodd" clip-rule="evenodd" d="M29.8208 8.78906H15.1578C14.9834 8.78906 14.842 8.93045 14.842 9.10485C14.842 9.27926 14.9834 9.42064 15.1578 9.42064H29.5474L35.0525 15.2861V28.368C35.0525 28.5424 35.1939 28.6838 35.3683 28.6838C35.5427 28.6838 35.6841 28.5424 35.6841 28.368V15.0362L29.8208 8.78906Z" fill="#9F82B1"/>
<path d="M41.5061 19.376C39.5258 19.3839 37.9144 19.4099 37.9144 19.4099C37.9144 19.4099 39.8301 17.1711 41.4992 18.0008C43.1684 18.8305 45.0853 19.3809 45.0853 19.3809C45.0853 19.3809 43.4863 19.368 41.5061 19.376Z" fill="white"/>
<path d="M4.85481 22.9599C2.87458 22.9679 1.26318 22.9939 1.26318 22.9939C1.26318 22.9939 3.1788 20.7551 4.84797 21.5848C6.51713 22.4145 8.43403 22.9648 8.43403 22.9648C8.43403 22.9648 6.83504 22.952 4.85481 22.9599Z" fill="white"/>
<path d="M15.2117 6.55955C13.2315 6.56748 11.6201 6.59352 11.6201 6.59352C11.6201 6.59352 13.5357 4.35473 15.2049 5.18442C16.8741 6.0141 18.791 6.56446 18.791 6.56446C18.791 6.56446 17.192 6.55162 15.2117 6.55955Z" fill="white"/>
<path d="M28.3168 30.9256H34.8991V29.7773H38.0007V30.9256H45.5797V36.0113H38.0007V41.7773H34.8991V36.0113H28.3168L26.0007 33.2221L28.3168 30.9256Z" fill="#E03C31"/>
<path d="M29.0506 34.8292C28.9774 34.8292 28.9193 34.809 28.8763 34.7686C28.8359 34.7281 28.8157 34.6713 28.8157 34.598V32.3888C28.8157 32.3155 28.8359 32.2587 28.8763 32.2183C28.9193 32.1778 28.9774 32.1576 29.0506 32.1576H30.4186C30.4919 32.1576 30.5487 32.174 30.5891 32.2069C30.6296 32.2397 30.6498 32.2865 30.6498 32.3471C30.6498 32.4103 30.6296 32.4595 30.5891 32.4949C30.5487 32.5277 30.4919 32.5441 30.4186 32.5441H29.2931V33.2793H30.3428C30.4161 33.2793 30.4729 33.2957 30.5134 33.3286C30.5538 33.3614 30.574 33.4094 30.574 33.4726C30.574 33.5332 30.5538 33.5799 30.5134 33.6128C30.4729 33.6456 30.4161 33.662 30.3428 33.662H29.2931V34.4427H30.4186C30.4919 34.4427 30.5487 34.4604 30.5891 34.4957C30.6296 34.5286 30.6498 34.5766 30.6498 34.6397C30.6498 34.7004 30.6296 34.7471 30.5891 34.7799C30.5487 34.8128 30.4919 34.8292 30.4186 34.8292H29.0506Z" fill="white"/>
<path d="M33.0979 34.4806C33.1383 34.5286 33.1585 34.5766 33.1585 34.6246C33.1585 34.6852 33.1345 34.7383 33.0865 34.7837C33.0411 34.8292 32.988 34.8519 32.9274 34.8519C32.8642 34.8519 32.8086 34.8241 32.7606 34.7686L31.9914 33.8136L31.2183 34.7686C31.1728 34.8216 31.1185 34.8481 31.0554 34.8481C30.9947 34.8481 30.9404 34.8267 30.8924 34.7837C30.847 34.7383 30.8242 34.6852 30.8242 34.6246C30.8242 34.574 30.8432 34.526 30.8811 34.4806L31.7072 33.4726L30.9152 32.5063C30.8773 32.4658 30.8583 32.4178 30.8583 32.3623C30.8583 32.3016 30.8811 32.2498 30.9265 32.2069C30.972 32.1614 31.0251 32.1387 31.0857 32.1387C31.1488 32.1387 31.2044 32.1665 31.2524 32.222L31.9914 33.1353L32.7303 32.222C32.7758 32.1665 32.8301 32.1387 32.8933 32.1387C32.9539 32.1387 33.007 32.1614 33.0524 32.2069C33.1004 32.2498 33.1244 32.3016 33.1244 32.3623C33.1244 32.4178 33.1055 32.4658 33.0676 32.5063L32.2756 33.4726L33.0979 34.4806Z" fill="white"/>
<path d="M33.7802 34.8519C33.707 34.8519 33.6476 34.8305 33.6021 34.7875C33.5592 34.742 33.5377 34.6814 33.5377 34.6056V32.3888C33.5377 32.3155 33.5579 32.2587 33.5983 32.2183C33.6413 32.1778 33.6994 32.1576 33.7727 32.1576H34.7049C34.9903 32.1576 35.2127 32.2296 35.3718 32.3736C35.531 32.5151 35.6106 32.7147 35.6106 32.9724C35.6106 33.23 35.531 33.4309 35.3718 33.5749C35.2127 33.7189 34.9903 33.7909 34.7049 33.7909H34.0266V34.6056C34.0266 34.6814 34.0038 34.742 33.9583 34.7875C33.9154 34.8305 33.856 34.8519 33.7802 34.8519ZM34.6442 33.4157C34.9802 33.4157 35.1482 33.2692 35.1482 32.9761C35.1482 32.6831 34.9802 32.5366 34.6442 32.5366H34.0266V33.4157H34.6442Z" fill="white"/>
<path d="M36.2819 34.8519C36.2086 34.8519 36.1493 34.8292 36.1038 34.7837C36.0608 34.7383 36.0394 34.6789 36.0394 34.6056V32.3812C36.0394 32.3079 36.0608 32.2498 36.1038 32.2069C36.1493 32.1614 36.2086 32.1387 36.2819 32.1387C36.3577 32.1387 36.417 32.1614 36.46 32.2069C36.5055 32.2498 36.5282 32.3079 36.5282 32.3812V34.6056C36.5282 34.6789 36.5055 34.7383 36.46 34.7837C36.417 34.8292 36.3577 34.8519 36.2819 34.8519Z" fill="white"/>
<path d="M39.2424 34.5223C39.2727 34.5677 39.2879 34.6119 39.2879 34.6549C39.2879 34.713 39.2639 34.761 39.2159 34.7989C39.1704 34.8368 39.1161 34.8557 39.0529 34.8557C39.0125 34.8557 38.9734 34.8469 38.9355 34.8292C38.9001 34.809 38.8698 34.7799 38.8445 34.742L38.3405 33.9766C38.29 33.8957 38.2357 33.8389 38.1776 33.806C38.122 33.7732 38.0487 33.7568 37.9578 33.7568H37.5864V34.6056C37.5864 34.6814 37.5649 34.742 37.522 34.7875C37.479 34.8305 37.4209 34.8519 37.3477 34.8519C37.2744 34.8519 37.215 34.8305 37.1696 34.7875C37.1266 34.742 37.1051 34.6814 37.1051 34.6056V32.3888C37.1051 32.3155 37.1254 32.2587 37.1658 32.2183C37.2087 32.1778 37.2668 32.1576 37.3401 32.1576H38.2875C38.5906 32.1576 38.8205 32.2258 38.9771 32.3623C39.1363 32.4961 39.2159 32.6907 39.2159 32.9458C39.2159 33.153 39.1565 33.3235 39.0378 33.4574C38.9216 33.5888 38.7561 33.6734 38.5414 33.7113C38.6146 33.729 38.679 33.7606 38.7346 33.806C38.7902 33.8515 38.8445 33.9147 38.8976 33.9955L39.2424 34.5223ZM38.2193 33.3816C38.4037 33.3816 38.5388 33.3475 38.6247 33.2793C38.7106 33.2086 38.7536 33.1012 38.7536 32.9572C38.7536 32.8107 38.7106 32.7046 38.6247 32.6389C38.5388 32.5707 38.4037 32.5366 38.2193 32.5366H37.5826V33.3816H38.2193Z" fill="white"/>
<path d="M39.975 34.8292C39.9017 34.8292 39.8436 34.809 39.8006 34.7686C39.7602 34.7281 39.74 34.6713 39.74 34.598V32.3888C39.74 32.3155 39.7602 32.2587 39.8006 32.2183C39.8436 32.1778 39.9017 32.1576 39.975 32.1576H41.343C41.4162 32.1576 41.4731 32.174 41.5135 32.2069C41.5539 32.2397 41.5741 32.2865 41.5741 32.3471C41.5741 32.4103 41.5539 32.4595 41.5135 32.4949C41.4731 32.5277 41.4162 32.5441 41.343 32.5441H40.2175V33.2793H41.2672C41.3404 33.2793 41.3973 33.2957 41.4377 33.3286C41.4781 33.3614 41.4983 33.4094 41.4983 33.4726C41.4983 33.5332 41.4781 33.5799 41.4377 33.6128C41.3973 33.6456 41.3404 33.662 41.2672 33.662H40.2175V34.4427H41.343C41.4162 34.4427 41.4731 34.4604 41.5135 34.4957C41.5539 34.5286 41.5741 34.5766 41.5741 34.6397C41.5741 34.7004 41.5539 34.7471 41.5135 34.7799C41.4731 34.8128 41.4162 34.8292 41.343 34.8292H39.975Z" fill="white"/>
<path d="M42.2065 34.8292C42.1332 34.8292 42.0751 34.809 42.0321 34.7686C41.9917 34.7281 41.9715 34.6713 41.9715 34.598V32.3888C41.9715 32.3155 41.9917 32.2587 42.0321 32.2183C42.0751 32.1778 42.1332 32.1576 42.2065 32.1576H42.9568C43.3938 32.1576 43.7324 32.2751 43.9724 32.51C44.2149 32.7425 44.3361 33.0696 44.3361 33.4915C44.3361 33.9159 44.2149 34.2456 43.9724 34.4806C43.7324 34.713 43.3938 34.8292 42.9568 34.8292H42.2065ZM42.9265 34.4313C43.5404 34.4313 43.8473 34.118 43.8473 33.4915C43.8473 32.8675 43.5404 32.5555 42.9265 32.5555H42.4604V34.4313H42.9265Z" fill="white"/>
<rect y="41.6309" width="48" height="0.631579" rx="0.315789" fill="#9F82B1"/>
<defs>
<filter id="filter0_i_3266_52827" x="14.8075" y="35.3457" width="2.7887" height="6.375" filterUnits="userSpaceOnUse" color-interpolation-filters="sRGB">
<feFlood flood-opacity="0" result="BackgroundImageFix"/>
<feBlend mode="normal" in="SourceGraphic" in2="BackgroundImageFix" result="shape"/>
<feColorMatrix in="SourceAlpha" type="matrix" values="0 0 0 0 0 0 0 0 0 0 0 0 0 0 0 0 0 0 127 0" result="hardAlpha"/>
<feOffset dx="1" dy="1"/>
<feComposite in2="hardAlpha" operator="arithmetic" k2="-1" k3="1"/>
<feColorMatrix type="matrix" values="0 0 0 0 0.941176 0 0 0 0 0.917647 0 0 0 0 0.956863 0 0 0 1 0"/>
<feBlend mode="normal" in2="shape" result="effect1_innerShadow_3266_52827"/>
</filter>
<filter id="filter1_i_3266_52827" x="10.4259" y="16.6211" width="11.9514" height="2.39062" filterUnits="userSpaceOnUse" color-interpolation-filters="sRGB">
<feFlood flood-opacity="0" result="BackgroundImageFix"/>
<feBlend mode="normal" in="SourceGraphic" in2="BackgroundImageFix" result="shape"/>
<feColorMatrix in="SourceAlpha" type="matrix" values="0 0 0 0 0 0 0 0 0 0 0 0 0 0 0 0 0 0 127 0" result="hardAlpha"/>
<feOffset dx="1" dy="1"/>
<feComposite in2="hardAlpha" operator="arithmetic" k2="-1" k3="1"/>
<feColorMatrix type="matrix" values="0 0 0 0 0.941176 0 0 0 0 0.917647 0 0 0 0 0.956863 0 0 0 1 0"/>
<feBlend mode="normal" in2="shape" result="effect1_innerShadow_3266_52827"/>
</filter>
<filter id="filter2_i_3266_52827" x="10.4259" y="21.4004" width="11.9514" height="2.39062" filterUnits="userSpaceOnUse" color-interpolation-filters="sRGB">
<feFlood flood-opacity="0" result="BackgroundImageFix"/>
<feBlend mode="normal" in="SourceGraphic" in2="BackgroundImageFix" result="shape"/>
<feColorMatrix in="SourceAlpha" type="matrix" values="0 0 0 0 0 0 0 0 0 0 0 0 0 0 0 0 0 0 127 0" result="hardAlpha"/>
<feOffset dx="1" dy="1"/>
<feComposite in2="hardAlpha" operator="arithmetic" k2="-1" k3="1"/>
<feColorMatrix type="matrix" values="0 0 0 0 0.941176 0 0 0 0 0.917647 0 0 0 0 0.956863 0 0 0 1 0"/>
<feBlend mode="normal" in2="shape" result="effect1_innerShadow_3266_52827"/>
</filter>
<filter id="filter3_i_3266_52827" x="10.4259" y="26.5801" width="11.9514" height="2.39062" filterUnits="userSpaceOnUse" color-interpolation-filters="sRGB">
<feFlood flood-opacity="0" result="BackgroundImageFix"/>
<feBlend mode="normal" in="SourceGraphic" in2="BackgroundImageFix" result="shape"/>
<feColorMatrix in="SourceAlpha" type="matrix" values="0 0 0 0 0 0 0 0 0 0 0 0 0 0 0 0 0 0 127 0" result="hardAlpha"/>
<feOffset dx="1" dy="1"/>
<feComposite in2="hardAlpha" operator="arithmetic" k2="-1" k3="1"/>
<feColorMatrix type="matrix" values="0 0 0 0 0.941176 0 0 0 0 0.917647 0 0 0 0 0.956863 0 0 0 1 0"/>
<feBlend mode="normal" in2="shape" result="effect1_innerShadow_3266_52827"/>
</filter>
<filter id="filter4_i_3266_52827" x="10.4259" y="31.3613" width="11.9514" height="2.39062" filterUnits="userSpaceOnUse" color-interpolation-filters="sRGB">
<feFlood flood-opacity="0" result="BackgroundImageFix"/>
<feBlend mode="normal" in="SourceGraphic" in2="BackgroundImageFix" result="shape"/>
<feColorMatrix in="SourceAlpha" type="matrix" values="0 0 0 0 0 0 0 0 0 0 0 0 0 0 0 0 0 0 127 0" result="hardAlpha"/>
<feOffset dx="1" dy="1"/>
<feComposite in2="hardAlpha" operator="arithmetic" k2="-1" k3="1"/>
<feColorMatrix type="matrix" values="0 0 0 0 0.941176 0 0 0 0 0.917647 0 0 0 0 0.956863 0 0 0 1 0"/>
<feBlend mode="normal" in2="shape" result="effect1_innerShadow_3266_52827"/>
</filter>
</defs>
</svg>
